<?xml version="1.0" ?><svg id="Layer_1" style="enable-background:new 0 0 32 32;" version="1.1" viewBox="0 0 32 32" xml:space="preserve" xmlns="http://www.w3.org/2000/svg" xmlns:xlink="http://www.w3.org/1999/xlink"><style type="text/css">
	.st0{fill:#ffb42a;}
	.st1{fill:none;stroke:#000000;stroke-linecap:round;stroke-linejoin:round;stroke-miterlimit:10;}
</style><g id="XMLID_289_"><path d="M16,30.5C8,30.5,1.5,24,1.5,16S8,1.5,16,1.5S30.5,8,30.5,16S24,30.5,16,30.5z M16,2.5   C8.6,2.5,2.5,8.6,2.5,16c0,7.4,6.1,13.5,13.5,13.5c7.4,0,13.5-6.1,13.5-13.5C29.5,8.6,23.4,2.5,16,2.5z" id="XMLID_5_"/></g><g id="XMLID_1_"><g id="XMLID_216_"><path class="st0" d="M23.1,24.5H11.9c-0.8,0-1.4-0.6-1.4-1.4V14v-2.2c0-0.8,0.6-1.4,1.4-1.4h11.3c0.8,0,1.4,0.6,1.4,1.4v11.3    C24.5,23.9,23.9,24.5,23.1,24.5z"/></g><g id="XMLID_223_"><path d="M23.5,15.6c-0.3,0-0.5-0.2-0.5-0.5v-4.2c0-0.5-0.4-0.9-0.9-0.9H10.9c-0.5,0-0.9,0.4-0.9,0.9v1.6    c0,0.3-0.2,0.5-0.5,0.5S9,12.7,9,12.5v-1.6C9,9.8,9.8,9,10.9,9h11.3c1,0,1.9,0.8,1.9,1.9v4.2C24,15.4,23.8,15.6,23.5,15.6z" id="XMLID_4_"/></g><g id="XMLID_222_"><path d="M22.1,24H10.9c-1,0-1.9-0.8-1.9-1.9v-7.5c0-0.3,0.2-0.5,0.5-0.5s0.5,0.2,0.5,0.5v7.5c0,0.5,0.4,0.9,0.9,0.9    h11.3c0.5,0,0.9-0.4,0.9-0.9v-1.5c0-0.3,0.2-0.5,0.5-0.5s0.5,0.2,0.5,0.5v1.5C24,23.2,23.2,24,22.1,24z" id="XMLID_3_"/></g><g id="XMLID_176_"><path class="st1" d="M23.3,18.6"/></g></g></svg>