<?xml version="1.0" ?>
<svg id="Layer_1" style="enable-background:new 0 0 32 32;" version="1.1" viewBox="0 0 32 32" xml:space="preserve" xmlns="http://www.w3.org/2000/svg" xmlns:xlink="http://www.w3.org/1999/xlink"><style type="text/css">
	.st0{fill:#ffb42a;}
</style><g id="XMLID_197_"><path class="st0" d="M13.3,11.1l10.4,6c0.7,0.4,0.7,1.4,0,1.8l-10.4,6c-0.7,0.4-1.5-0.1-1.5-0.9V12C11.8,11.2,12.6,10.7,13.3,11.1z   "/></g><g id="XMLID_286_"><path d="M16,30.5C8,30.5,1.5,24,1.5,16S8,1.5,16,1.5S30.5,8,30.5,16S24,30.5,16,30.5z M16,2.5   C8.6,2.5,2.5,8.6,2.5,16c0,7.4,6.1,13.5,13.5,13.5c7.4,0,13.5-6.1,13.5-13.5C29.5,8.6,23.4,2.5,16,2.5z" id="XMLID_3_"/></g><g id="XMLID_198_"><path d="M11.8,23.5c-0.3,0-0.5-0.1-0.8-0.2c-0.5-0.3-0.8-0.8-0.8-1.3v-6.4c0-0.3,0.2-0.5,0.5-0.5s0.5,0.2,0.5,0.5V22   c0,0.3,0.2,0.4,0.3,0.5c0.1,0,0.3,0.1,0.5,0l10.4-6c0.2-0.1,0.3-0.4,0.3-0.5s0-0.3-0.3-0.5l-10.4-6c-0.2-0.1-0.4,0-0.5,0   c-0.1,0-0.3,0.2-0.3,0.5v2c0,0.3-0.2,0.5-0.5,0.5s-0.5-0.2-0.5-0.5v-2c0-0.5,0.3-1,0.8-1.3c0.5-0.3,1-0.3,1.5,0l10.4,6   c0.5,0.3,0.8,0.8,0.8,1.3s-0.3,1-0.8,1.3l-10.4,6C12.3,23.5,12.1,23.5,11.8,23.5z" id="XMLID_2_"/></g></svg>