<?xml version="1.0" ?><svg style="enable-background:new 0 0 32 32;" version="1.1" viewBox="0 0 32 32" xml:space="preserve" xmlns="http://www.w3.org/2000/svg" xmlns:xlink="http://www.w3.org/1999/xlink"><style type="text/css">
	.st0{fill:#ffb42a;}
</style><g id="Layer_1"><g id="XMLID_65_"/></g><g id="Layer_2"><g id="XMLID_241_"><path class="st0" d="M14.5,24h-2.9c-0.9,0-1.5-0.7-1.5-1.5V11.5c0-0.9,0.7-1.5,1.5-1.5h2.9c0.9,0,1.5,0.7,1.5,1.5v1.8v2.1v7    C16,23.3,15.3,24,14.5,24z"/></g><g id="XMLID_240_"><path class="st0" d="M22.5,24h-2.9c-0.9,0-1.5-0.7-1.5-1.5V11.5c0-0.9,0.7-1.5,1.5-1.5h2.9c0.9,0,1.5,0.7,1.5,1.5v10.9    C24,23.3,23.3,24,22.5,24z"/></g><g id="XMLID_317_"><path d="M16,30.5C8,30.5,1.5,24,1.5,16S8,1.5,16,1.5S30.5,8,30.5,16S24,30.5,16,30.5z M16,2.5    C8.6,2.5,2.5,8.6,2.5,16c0,7.4,6.1,13.5,13.5,13.5c7.4,0,13.5-6.1,13.5-13.5C29.5,8.6,23.4,2.5,16,2.5z" id="XMLID_4_"/></g><g id="XMLID_243_"><path d="M13.5,23.5h-2.9c-1.1,0-2-0.9-2-2v-6.7c0-0.3,0.2-0.5,0.5-0.5s0.5,0.2,0.5,0.5v6.7c0,0.6,0.5,1,1,1h2.9    c0.6,0,1-0.5,1-1V10.5c0-0.6-0.5-1-1-1h-2.9c-0.6,0-1,0.5-1,1v1.1c0,0.3-0.2,0.5-0.5,0.5s-0.5-0.2-0.5-0.5v-1.1c0-1.1,0.9-2,2-2    h2.9c1.1,0,2,0.9,2,2v10.9C15.5,22.6,14.6,23.5,13.5,23.5z" id="XMLID_3_"/></g><g id="XMLID_242_"><path d="M21.5,23.5h-2.9c-1.1,0-2-0.9-2-2V10.5c0-1.1,0.9-2,2-2h2.9c1.1,0,2,0.9,2,2v6.8c0,0.3-0.2,0.5-0.5,0.5    s-0.5-0.2-0.5-0.5v-6.8c0-0.6-0.5-1-1-1h-2.9c-0.6,0-1,0.5-1,1v10.9c0,0.6,0.5,1,1,1h2.9c0.6,0,1-0.5,1-1v-2    c0-0.3,0.2-0.5,0.5-0.5s0.5,0.2,0.5,0.5v2C23.5,22.6,22.6,23.5,21.5,23.5z" id="XMLID_2_"/></g></g></svg>