<svg width="66" height="18" viewBox="0 0 66 18" fill="none" xmlns="http://www.w3.org/2000/svg">
<path d="M51.0386 0.34238C51.2303 0.41123 51.242 0.4344 51.2896 0.75925C51.3372 1.10125 51.343 1.10717 51.5813 1.19901C51.7149 1.25082 52.6097 1.58994 53.5683 1.95212C55.6309 2.72214 57.3334 3.41813 58.426 3.93058C59.2339 4.30478 59.3849 4.34484 60.4239 4.46299C60.7083 4.49679 61.1553 4.55892 61.4107 4.60446C61.6662 4.64986 62.3569 4.70555 62.9487 4.72068L64.028 4.75742L64.1855 4.97153C64.2729 5.09311 64.3664 5.25528 64.3957 5.34214C64.4483 5.46385 64.4369 5.4987 64.3384 5.5571C64.1994 5.6272 64.2059 5.8071 64.3704 6.3635C64.4291 6.5663 64.4651 6.90855 64.4667 7.33213C64.4688 7.91795 64.4807 7.98766 64.5853 8.04526C64.7481 8.13166 64.9992 8.58348 65.0934 8.96604C65.1935 9.37768 65.1875 10.9153 65.0853 11.5422C65.0114 11.9835 64.9999 12.0009 64.6587 12.3154C64.4679 12.4959 64.2541 12.7462 64.1849 12.8681C63.9428 13.2984 63.1951 13.5333 61.3856 13.7429C60.6143 13.8326 58.6479 13.9848 58.2591 13.9862C58.2127 13.9864 58.1944 13.7428 58.1866 13.1856C58.1842 12.4895 58.1604 12.333 58.0255 11.9273C57.8026 11.2608 57.4991 10.7804 56.9634 10.2426C56.4335 9.71075 55.9043 9.37617 55.2188 9.14072C54.7889 8.99727 54.6844 8.98609 53.8838 8.98899C53.0831 8.99179 52.9787 9.00376 52.5499 9.15036C51.8603 9.39656 51.3393 9.72921 50.8132 10.2649C50.2756 10.818 50.0333 11.2076 49.7863 11.9105C49.614 12.3928 49.6085 12.4682 49.6057 13.2921C49.6074 13.7679 49.6325 14.3016 49.6564 14.4756L49.7039 14.7888L48.8741 14.7568C48.4156 14.7353 42.9848 14.7374 36.794 14.7597C26.1066 14.7981 25.5495 14.7944 25.5898 14.7014C25.607 14.6433 25.6698 14.3414 25.7208 14.0221C25.7945 13.5403 25.7997 13.3662 25.74 12.9081C25.6087 11.8816 25.147 10.9664 24.4192 10.2611C22.329 8.24378 18.8151 8.87131 17.5364 11.4928C17.1966 12.1903 17.1111 12.5909 17.1199 13.438C17.1213 13.8385 17.1519 14.2677 17.1929 14.3893C17.2282 14.5168 17.2518 14.6328 17.2403 14.6444C17.2056 14.6734 15.6733 14.5513 15.2611 14.4832C14.7328 14.3981 14.5527 14.3233 14.3489 14.1269C14.0228 13.7972 13.9699 13.6059 14.0312 12.8922C14.0699 12.3756 14.0632 12.1261 13.9682 11.5056C13.8253 10.5199 13.8212 9.35938 13.953 8.91208C14.2626 7.87228 15.7921 7.23446 19.9898 6.38376C22.6685 5.84041 24.3736 5.63697 26.5724 5.59433C28.8641 5.55127 28.8757 5.54537 29.3098 5.24802C30.1607 4.6705 33.1717 2.97118 34.8976 2.09458C36.2875 1.39341 37.1974 1.09421 38.7108 0.827609C41.0012 0.425019 44.6215 0.35957 48.597 0.63547L49.5371 0.701755L49.9251 0.485568C50.3478 0.246168 50.6552 0.20438 51.0386 0.34238ZM43.3089 1.60605C43.2919 1.72792 43.1504 2.69736 42.9859 3.75986C42.8215 4.82223 42.7028 5.70447 42.7145 5.7219C42.761 5.7623 49.0848 5.61194 50.274 5.5438C52.2057 5.42664 52.5768 5.34983 52.9816 4.96543C53.3864 4.58698 53.513 4.31364 53.5171 3.84958C53.5152 3.32738 53.3927 3.13637 52.8753 2.85373C51.236 1.97202 47.9558 1.42686 44.103 1.39426L43.3429 1.39121L43.3089 1.60605ZM39.439 1.66049C36.5629 2.12929 35.5837 2.50997 33.2221 4.08493C32.6201 4.48752 32.5334 4.56329 32.7016 4.56259C32.8756 4.56199 33.1723 4.77561 33.2775 4.97251C33.3476 5.11158 33.3655 5.24485 33.3431 5.47135L33.3094 5.77896L36.9067 5.76584L40.4982 5.75302L40.5614 5.59043C40.8776 4.78848 41.7844 2.01775 41.8527 1.64035L41.8926 1.43711L41.1152 1.47464C40.6859 1.49924 39.932 1.58329 39.439 1.66049Z" fill="black"/>
<path d="M54.6386 9.14871C56.5662 9.51891 57.9528 11.0805 58.0874 13.0296C58.1731 14.2652 57.6728 15.5086 56.7591 16.3532C56.2849 16.7901 55.8622 17.041 55.2364 17.2637C54.7555 17.4396 54.6743 17.4514 53.9142 17.4484C53.1773 17.4509 53.0612 17.4398 52.6372 17.2963C51.2023 16.8025 50.1713 15.6921 49.8063 14.2488C49.671 13.7213 49.6963 12.6768 49.8569 12.1597C50.3041 10.6903 51.4142 9.59548 52.8402 9.21902C53.3387 9.08952 54.1509 9.05761 54.6386 9.14871ZM52.9491 10.4718C51.5525 10.9352 50.6817 12.4237 50.9827 13.8327C51.1185 14.4937 51.3405 14.9048 51.818 15.3788C52.2547 15.8181 52.6326 16.0315 53.2134 16.1802C54.9672 16.6207 56.7379 15.3087 56.8648 13.4749C56.9422 12.4243 56.4104 11.3645 55.5265 10.7991C55.2008 10.5856 54.6488 10.3788 54.2947 10.3219C53.9754 10.2768 53.3142 10.3488 52.9491 10.4718Z" fill="black"/>
<path d="M54.6795 10.8371C54.7899 10.8772 54.9991 10.9693 55.1328 11.0384L55.3886 11.1652L54.9087 11.6483C54.6428 11.9163 54.4057 12.1259 54.3766 12.1088C54.3533 12.0913 54.329 11.7782 54.3277 11.4126C54.3251 10.6931 54.3193 10.7048 54.6795 10.8371Z" fill="black"/>
<path d="M53.4573 11.41C53.4587 11.7814 53.4366 12.0947 53.4134 12.1123C53.3845 12.1298 53.1458 11.9215 52.878 11.6556L52.3889 11.17L52.7654 10.9946C52.9681 10.9011 53.2056 10.8016 53.2926 10.7781L53.4549 10.7427L53.4573 11.41Z" fill="black"/>
<path d="M56.1752 12.1139C56.2687 12.2992 56.3682 12.5426 56.3918 12.6411L56.4331 12.8324L55.7601 12.8348C55.3945 12.8361 55.0811 12.8141 55.0637 12.7909C55.0461 12.7618 55.2541 12.5232 55.5201 12.2554L55.9999 11.7721L56.1752 12.1139Z" fill="black"/>
<path d="M52.2884 12.2845C52.5505 12.5505 52.7486 12.7818 52.7312 12.8052C52.7081 12.8283 52.3891 12.847 52.0235 12.8483L51.3621 12.8507L51.3964 12.6881C51.4364 12.5255 51.7529 11.8048 51.7877 11.8047C51.7993 11.8046 52.0263 12.0184 52.2884 12.2845Z" fill="black"/>
<path d="M54.0411 12.4C54.0414 12.4813 54.0184 12.5568 53.9895 12.5743C53.8853 12.6384 53.7515 12.5403 53.751 12.4011C53.7506 12.2909 53.7795 12.2617 53.8955 12.2612C54.0116 12.261 54.0407 12.2898 54.0411 12.4Z" fill="black"/>
<path d="M54.1593 13.0147C54.3049 13.1592 54.3117 13.4319 54.1729 13.5541C54.0283 13.6824 53.7382 13.6776 53.6217 13.5504C53.4062 13.3132 53.5846 12.9008 53.8978 12.8995C53.9791 12.8992 54.0953 12.9511 54.1593 13.0147Z" fill="black"/>
<path d="M54.9145 13.2672C54.9151 13.4354 54.7761 13.4998 54.6597 13.3842C54.5432 13.2684 54.6065 13.129 54.7748 13.1285C54.885 13.1282 54.9141 13.157 54.9145 13.2672Z" fill="black"/>
<path d="M53.1969 13.2212C53.238 13.3313 53.0819 13.4884 52.9715 13.4482C52.925 13.4252 52.8841 13.3499 52.8838 13.2744C52.8834 13.1642 52.9123 13.1351 53.0225 13.1348C53.098 13.1345 53.1736 13.1748 53.1969 13.2212Z" fill="black"/>
<path d="M56.4248 13.7606C56.4253 13.8711 56.2356 14.3764 56.126 14.5626L56.0049 14.7601L55.5216 14.2804C55.2538 14.0202 55.0498 13.7831 55.0671 13.754C55.1075 13.6843 56.4246 13.6912 56.4248 13.7606Z" fill="black"/>
<path d="M52.7347 13.7624C52.7522 13.7912 52.55 14.0299 52.2841 14.2921L51.8042 14.7754L51.6817 14.5786C51.5707 14.3933 51.3775 13.8891 51.3771 13.7789C51.3768 13.7092 52.6939 13.693 52.7347 13.7624Z" fill="black"/>
<path d="M54.0704 14.0884C54.088 14.1347 54.0592 14.2101 54.013 14.2568C53.8974 14.3733 53.7579 14.31 53.7573 14.1417C53.7569 14.0315 53.7858 14.0023 53.896 14.0018C53.9715 14.0017 54.047 14.042 54.0704 14.0884Z" fill="black"/>
<path d="M54.9437 14.9208L55.3979 15.3774L55.2532 15.4766C55.0737 15.5933 54.5523 15.7984 54.4305 15.7988C54.3608 15.799 54.343 15.683 54.341 15.1318C54.3392 14.6328 54.356 14.4644 54.414 14.4641C54.4546 14.4641 54.6933 14.6721 54.9437 14.9208Z" fill="black"/>
<path d="M53.4707 15.135C53.4727 15.6862 53.4557 15.8021 53.3861 15.8024C53.2643 15.803 52.7413 15.6017 52.5611 15.4863L52.4156 15.3883L52.8665 14.9282C53.1151 14.6779 53.3523 14.4682 53.3929 14.468C53.4509 14.4678 53.4689 14.6359 53.4707 15.135Z" fill="black"/>
<path d="M22.147 9.27137C24.1791 9.64125 25.6125 11.3419 25.6141 13.39C25.6166 14.0979 25.4909 14.6205 25.1799 15.2658C24.9494 15.7365 24.8341 15.8996 24.3831 16.3422C23.5852 17.1398 22.7685 17.514 21.6837 17.5817C19.4619 17.7173 17.524 16.0999 17.2666 13.8901C17.111 12.5736 17.5764 11.2954 18.542 10.3809C19.0336 9.91491 19.4561 9.64661 20.0125 9.45301C20.7542 9.18934 21.4038 9.13465 22.147 9.27137ZM20.4923 10.5828C20.0112 10.7296 19.363 11.1846 19.0859 11.5626C18.9704 11.7196 18.7974 12.0279 18.6938 12.2488C18.5326 12.5974 18.5098 12.7195 18.4886 13.2649C18.4672 13.7813 18.4853 13.9553 18.5909 14.2915C18.8258 15.0681 19.3793 15.6985 20.1349 16.0672C22.1227 17.0348 24.4036 15.5935 24.3956 13.3828C24.3928 12.588 24.1352 11.9622 23.5644 11.3493C22.7781 10.5166 21.6224 10.225 20.4923 10.5828Z" fill="black"/>
<path d="M22.275 10.9767C22.5829 11.0858 22.8794 11.2589 22.8796 11.3226C22.88 11.4097 21.9605 12.2717 21.9023 12.2371C21.8093 12.1737 21.8104 10.8682 21.9032 10.8679C21.9439 10.8734 22.1123 10.9193 22.275 10.9767Z" fill="black"/>
<path d="M21.0237 11.5266C21.0255 12.0372 21.0087 12.1997 20.945 12.2231C20.8986 12.2407 20.6717 12.0559 20.3863 11.7725L19.9088 11.2928L20.2737 11.1173C20.4764 11.0181 20.7314 10.9185 20.83 10.9008L21.0213 10.8594L21.0237 11.5266Z" fill="black"/>
<path d="M23.5608 11.9759C23.6832 12.1263 23.8587 12.526 23.9001 12.7347L23.9415 12.9492L23.2685 12.9518C22.7637 12.9535 22.5954 12.9367 22.5952 12.8788C22.595 12.8381 22.7972 12.6052 23.0458 12.3548C23.3985 11.9996 23.5142 11.9181 23.5608 11.9759Z" fill="black"/>
<path d="M19.8257 12.3722C20.0702 12.6151 20.2742 12.8522 20.2743 12.8928C20.2745 12.9451 20.0889 12.9631 19.5841 12.9651L18.8879 12.9677L18.9796 12.6597C19.0655 12.3517 19.2786 11.9216 19.3425 11.9214C19.3599 11.9212 19.5753 12.1237 19.8257 12.3722Z" fill="black"/>
<path d="M21.5899 12.4703C21.6075 12.5167 21.5788 12.6038 21.5267 12.6563C21.44 12.7435 21.4284 12.7438 21.3411 12.6569C21.2188 12.5355 21.2762 12.3785 21.4329 12.3781C21.4967 12.3778 21.5665 12.4182 21.5899 12.4703Z" fill="black"/>
<path d="M21.6793 13.1141C21.8599 13.3283 21.8492 13.5893 21.6466 13.7235C21.4267 13.875 21.0314 13.6676 21.0305 13.4066C21.0293 13.0934 21.4812 12.8887 21.6793 13.1141Z" fill="black"/>
<path d="M22.4633 13.3375C22.4809 13.3839 22.4522 13.4709 22.4002 13.5236C22.3135 13.6108 22.3018 13.6108 22.2145 13.5242C22.0922 13.4026 22.1496 13.2459 22.3063 13.2451C22.3702 13.245 22.4399 13.2853 22.4633 13.3375Z" fill="black"/>
<path d="M20.7227 13.3439C20.7403 13.3902 20.7116 13.4774 20.6596 13.5299C20.5728 13.6172 20.5612 13.6172 20.4739 13.5305C20.3516 13.409 20.409 13.252 20.5657 13.2517C20.6295 13.2514 20.6993 13.2916 20.7227 13.3439Z" fill="black"/>
<path d="M23.9335 13.9473C23.9339 14.0634 23.6348 14.7781 23.5538 14.8596C23.5133 14.9004 22.5991 13.9813 22.5988 13.9001C22.5986 13.842 22.7668 13.8241 23.2658 13.8221C23.9214 13.8198 23.933 13.8196 23.9335 13.9473Z" fill="black"/>
<path d="M20.2547 13.8967C20.2897 13.9546 19.4343 14.8804 19.3415 14.8805C19.2893 14.8809 18.9677 14.203 18.9206 13.9945L18.8852 13.8379L19.5466 13.8355C19.9702 13.8339 20.2256 13.8562 20.2547 13.8967Z" fill="black"/>
<path d="M21.5962 14.211C21.6196 14.2748 21.5908 14.3387 21.5272 14.3911C21.4346 14.4553 21.4056 14.4554 21.3357 14.3861C21.2891 14.3398 21.2656 14.2588 21.2828 14.2123C21.3288 14.0901 21.5493 14.0895 21.5962 14.211Z" fill="black"/>
<path d="M22.4868 15.0144L22.9643 15.4941L22.5994 15.6754C22.3967 15.7748 22.1417 15.8742 22.0374 15.8921L21.8518 15.9275L21.8494 15.2602C21.8476 14.7555 21.8644 14.5872 21.9281 14.5637C21.9745 14.5463 22.2014 14.7309 22.4868 15.0144Z" fill="black"/>
<path d="M20.9592 14.5673C21.0173 14.5845 21.0353 14.7818 21.0371 15.2633L21.0395 15.9306L20.8189 15.8908C20.6215 15.8566 20.0752 15.6206 19.982 15.5224C19.918 15.4646 20.872 14.5327 20.9592 14.5673Z" fill="black"/>
<path d="M40.4358 4.24753C40.4558 4.26511 40.4736 4.28311 40.4816 4.30917C40.4897 4.33557 40.4879 4.37052 40.4848 4.40768L40.4314 4.32016L40.4358 4.24753ZM40.1917 4.11057C40.2234 4.17577 40.2524 4.2402 40.2682 4.30142C40.2839 4.36277 40.2864 4.42111 40.2864 4.47952L40.1917 4.11057ZM38.1465 4.17563C38.182 4.25192 38.2178 4.32835 38.2632 4.39798C38.3084 4.46718 38.363 4.52927 38.4175 4.59103L38.2247 4.72433C38.2373 4.67596 38.2475 4.62581 38.2227 4.5787C38.209 4.55282 38.1847 4.52789 38.1597 4.50229C38.1355 4.47739 38.1105 4.45149 38.092 4.42245C38.0542 4.36305 38.0438 4.28967 38.0581 4.24631C38.0716 4.20554 38.1073 4.19047 38.1465 4.17563ZM40.3131 5.02457C40.419 5.12937 40.5192 5.23087 40.5675 5.30527C40.6157 5.37961 40.6115 5.42614 40.6027 5.47079L40.3131 5.02457ZM39.9818 7.2562C40.0257 7.30493 40.0711 7.35703 40.1597 7.50143C40.2516 7.65122 40.3899 7.89984 40.5283 8.14914C40.5193 8.19818 40.5103 8.24885 40.5416 8.30515C40.5723 8.36045 40.6416 8.42079 40.7105 8.48019C40.6929 8.50133 40.675 8.52366 40.6656 8.55392C40.6561 8.58456 40.6552 8.62314 40.6546 8.6611C40.5686 8.7236 40.4823 8.78647 40.3948 8.86252C40.3068 8.93893 40.2174 9.02902 40.1283 9.11911L40.1271 9.12021C40.1255 9.12177 40.1252 9.12426 40.1261 9.12619L40.1431 9.15988L39.2609 9.70993V9.70822C39.2616 9.70737 39.262 9.70602 39.2619 9.7048L39.2611 9.67392L39.2612 9.66879C39.2612 9.66832 39.2611 9.66794 39.2611 9.66757L39.2596 9.61362C39.2595 9.61217 39.2589 9.61079 39.2579 9.60995L39.0258 9.39047L38.8616 9.03867C38.9241 9.00547 38.9865 8.97167 39.0258 8.78891C39.0644 8.60947 39.0811 8.28499 39.0976 7.95956C39.0973 7.95971 39.0978 7.95956 39.0976 7.95956C39.207 7.92281 39.3176 7.88569 39.4659 7.76755C39.6128 7.65022 39.7974 7.45337 39.9818 7.2562ZM39.0253 1.86435C39.0055 1.86225 38.9858 1.861 38.9663 1.8602C38.8073 1.85474 38.6581 1.8933 38.5097 1.9321C38.5094 1.932 38.509 1.93192 38.5087 1.93192C38.5088 1.93192 38.5085 1.93192 38.5087 1.93192C38.5072 1.93173 38.5052 1.93246 38.5042 1.93356C38.5014 1.93436 38.4996 1.93723 38.5004 1.93991C38.4679 1.99557 38.434 2.04984 38.338 2.09164C38.3246 2.09744 38.31 2.10297 38.2942 2.1091C38.1926 2.14792 38.051 2.20239 37.9447 2.43539C37.8227 2.70336 37.7469 3.20822 37.6715 3.71201L37.6711 3.71408C37.6101 3.91172 37.5488 4.11014 37.538 4.29623C37.5273 4.48251 37.5671 4.65731 37.6431 4.75766C37.7115 4.84762 37.8087 4.8768 37.9072 4.89932L37.638 4.91776C37.6373 4.91596 37.6356 4.9147 37.6336 4.9144C37.6338 4.9144 37.6335 4.9144 37.6336 4.9144C37.6332 4.9144 37.6324 4.91437 37.6319 4.91452C37.4664 4.95212 37.2986 4.99019 37.1814 5.16086C37.0718 5.32052 37.0066 5.59617 36.9445 5.87753L36.9549 5.48349C36.955 5.48125 36.9535 5.47921 36.9514 5.47836L36.0499 5.17593C36.0495 5.17587 36.0492 5.17563 36.0488 5.17563C36.049 5.17563 36.0487 5.17563 36.0488 5.17563L35.6915 5.16757C35.6886 5.16737 35.6862 5.16978 35.6861 5.17258C35.6861 5.17442 35.687 5.17619 35.6885 5.17709L35.6519 7.51743C35.6191 7.51827 35.5861 7.51914 35.5569 7.52267C35.5249 7.52657 35.4965 7.53377 35.4776 7.54843C35.441 7.57663 35.4427 7.63047 35.4443 7.68051C35.3771 7.75507 35.3092 7.83067 35.2844 7.88132C35.2589 7.93317 35.2778 7.96005 35.2965 7.98495L35.2923 8.08969C35.2687 8.11569 35.242 8.1448 35.2474 8.1727C35.2528 8.1998 35.2883 8.22387 35.3213 8.24582C35.3122 8.28647 35.3031 8.32899 35.3146 8.36789C35.3264 8.40783 35.3593 8.44382 35.3912 8.47873C35.4135 8.53367 35.4365 8.5909 35.48 8.61996C35.5041 8.63606 35.5342 8.64349 35.5666 8.64694C35.5787 8.64824 35.5911 8.64888 35.6036 8.64938C35.6167 8.64988 35.63 8.64997 35.6431 8.65012L35.6289 8.92978C35.6287 8.93238 35.6306 8.93465 35.6332 8.93515L36.4108 9.07529C36.3791 9.10924 36.3476 9.14572 36.3333 9.22787C36.3185 9.31247 36.322 9.44625 36.3254 9.57895C36.2734 9.81695 36.2213 10.0556 36.2241 10.243C36.2271 10.4302 36.2847 10.5658 36.3423 10.7002C36.3328 10.7326 36.323 10.7662 36.3257 10.802C36.3283 10.838 36.3433 10.8762 36.3581 10.9133C36.3417 11.0203 36.3254 11.1276 36.323 11.2374C36.3205 11.3474 36.3318 11.4602 36.3432 11.5726C36.3212 11.6358 36.2986 11.7001 36.2968 11.7401C36.2948 11.7822 36.3152 11.7984 36.3341 11.8134C36.3343 11.8135 36.3348 11.8139 36.3351 11.8141C36.3327 11.9673 36.3311 12.1274 36.3629 12.5818C37.2528 12.7115 38.2479 12.8595 39.3481 13.0258L39.3307 12.0465L39.3338 12.0453C39.3344 12.0455 39.3358 12.0454 39.3364 12.0451C39.3738 12.0345 39.4103 12.0224 39.4235 11.9048C39.4364 11.7886 39.4271 11.5666 39.4177 11.3458C39.4074 11.2005 39.397 11.0552 39.3967 10.9491C39.3966 10.9132 39.3976 10.8816 39.3985 10.8531C39.3993 10.8298 39.4 10.8083 39.4 10.7884C39.3999 10.761 39.3983 10.7361 39.3935 10.7114C39.3868 10.6771 39.3737 10.6441 39.3601 10.6101C39.3483 10.5801 39.336 10.5493 39.327 10.5154C39.3077 10.4425 39.3032 10.3551 39.2987 10.2671C39.2986 10.265 39.2974 10.2632 39.2956 10.2625L39.295 10.2574C39.6201 10.128 39.9446 9.99884 40.1798 9.89584C40.4143 9.79327 40.5596 9.71689 40.7042 9.64059L40.7883 9.73007C40.7881 9.73127 40.7883 9.73276 40.7891 9.73386C40.79 9.73506 40.7914 9.73581 40.7928 9.73593C40.7927 9.73579 40.7929 9.73593 40.7928 9.73593C40.7934 9.73593 40.7944 9.73595 40.795 9.73569C40.7948 9.73555 40.7952 9.73569 40.795 9.73569C40.7964 9.73569 40.7984 9.73544 40.7995 9.73434C40.8003 9.73358 40.8008 9.73278 40.801 9.73178C40.8964 9.66182 40.9917 9.59137 41.0502 9.53244C41.1088 9.47357 41.1306 9.42597 41.1514 9.37912C41.2024 9.37327 41.2539 9.3669 41.3148 9.34616C41.3767 9.32491 41.4484 9.28879 41.499 9.24179C41.5492 9.19542 41.5785 9.13867 41.6071 9.08273C41.6517 9.06637 41.6969 9.04956 41.7421 9.0134C41.7877 8.9772 41.8331 8.92137 41.878 8.8663C41.8793 8.86457 41.8795 8.86229 41.8786 8.86069C41.8788 8.85985 41.8788 8.85908 41.8787 8.85825C41.8402 8.58675 41.8016 8.3146 41.6845 8.0134C41.6056 7.8109 41.4912 7.59517 41.3663 7.37057C41.3363 7.31662 41.3057 7.26193 41.2748 7.20712C41.2434 7.15107 41.2116 7.09467 41.18 7.03781C40.9888 6.69382 40.8008 6.33407 40.6128 5.97397L40.6115 5.97165L40.6245 5.83444C40.6251 5.8338 40.6255 5.83307 40.6256 5.832C40.6589 5.67527 40.6924 5.51697 40.6541 5.34482C40.6163 5.17484 40.5085 4.9913 40.4005 4.80881C40.4395 4.759 40.4785 4.70859 40.5048 4.65109C40.5319 4.59173 40.5454 4.52494 40.5588 4.45908C40.5591 4.45748 40.5587 4.45601 40.5578 4.45486C40.5709 4.3492 40.5833 4.24196 40.551 4.16696C40.5459 4.15486 40.5395 4.14369 40.5318 4.13339C40.5158 4.11179 40.494 4.09467 40.4695 4.07523C40.4358 4.04867 40.3962 4.01712 40.3561 3.96347C40.3308 3.92947 40.3052 3.88665 40.281 3.83029C40.2727 3.81109 40.2646 3.79011 40.2566 3.76755C40.2207 3.66529 40.1891 3.52731 40.1542 3.37473C40.1112 3.18687 40.0632 2.97688 39.9957 2.78488C39.9792 2.73788 39.9615 2.69211 39.9425 2.64767C39.9358 2.63227 39.929 2.61694 39.922 2.6019C39.7466 2.22534 39.4602 1.99177 39.2051 1.90427C39.1435 1.88303 39.0837 1.87045 39.0253 1.86435Z" fill="black"/>
<path d="M7.05556 5.30768C7.06206 5.32618 7.06342 5.36284 7.05962 5.4176L7.01813 5.74951C7.01057 5.82485 7.00648 5.88888 7.00585 5.94165C7.00478 5.99182 7.00667 6.04734 7.01151 6.10828C7.04583 6.39514 7.06022 6.54103 7.05468 6.5459C7.05472 6.58157 7.05256 6.61636 7.04819 6.65027C7.01399 6.83752 6.99794 6.94574 7.00004 6.97498C6.99548 7.06155 7.00165 7.16239 7.01856 7.27747C7.04663 7.49369 7.14734 7.91712 7.32068 8.54779C7.44464 8.99826 7.54286 9.34068 7.61538 9.57501L7.66082 9.7168L7.55501 9.65051C7.45589 9.59185 7.36502 9.54955 7.2824 9.52368C7.2257 9.50515 7.1635 9.49131 7.09582 9.48218L6.67003 9.43915C6.61556 9.43048 6.56802 9.41466 6.52741 9.39166C6.48899 9.37022 6.45427 9.33814 6.42324 9.29541C6.26573 9.06301 6.1784 8.92639 6.16125 8.88556C6.08491 8.74545 6.01714 8.56782 5.95792 8.35266C5.93802 8.29342 5.86538 8.00322 5.74 7.48206L5.59626 6.94043C5.57664 6.86336 5.56259 6.79832 5.5541 6.74536C5.54348 6.67505 5.5429 6.62692 5.55234 6.60095C5.5552 6.58985 5.56138 6.57715 5.5709 6.56287C5.61446 6.51209 5.64044 6.47855 5.64882 6.46228C5.66373 6.43721 5.6786 6.40557 5.69346 6.36737C5.71008 6.32477 5.72824 6.27105 5.74792 6.20612C5.76405 6.19965 5.78383 6.18764 5.80764 6.1701C6.13404 5.87557 6.35538 5.69554 6.47164 5.63C6.68451 5.49474 6.87915 5.38728 7.05556 5.30768ZM3.82502 10.042L4.32474 11.0324C4.3259 11.0347 4.32728 11.0366 4.32888 11.0381C4.0009 11.4061 3.75956 11.813 3.60518 12.2588C3.60572 12.2543 3.60624 12.2497 3.60677 12.2452C3.61827 12.1437 3.62506 12.0393 3.62713 11.9319C3.62999 11.8945 3.62702 11.7009 3.61823 11.3512C3.61802 11.2732 3.62052 11.2042 3.62574 11.144C3.63091 11.0796 3.64246 11.0072 3.66039 10.9269L3.76978 10.5347C3.78282 10.4852 3.79375 10.4307 3.80257 10.3712C3.81561 10.2864 3.8232 10.1767 3.82502 10.042ZM7.06518 11.5793C7.08502 11.5793 7.10556 11.5795 7.12678 11.5797H7.12781C7.09045 11.7415 7.05669 11.9304 7.02653 12.1464C7.01617 12.1982 7.00343 12.2407 6.98835 12.274C6.96591 12.3261 6.93133 12.3695 6.88459 12.404C6.83414 12.4402 6.78462 12.4586 6.73603 12.4594C6.73505 12.4594 6.73408 12.4594 6.73313 12.4594C6.6845 12.4594 6.6555 12.4296 6.64611 12.3701C6.64217 12.3485 6.63973 12.3217 6.63881 12.2898C6.63971 12.1265 6.63839 12.0351 6.63483 12.0156C6.63273 11.9881 6.62881 11.9595 6.62311 11.9298C6.62147 11.9183 6.61089 11.8723 6.59134 11.792L6.58343 11.7485C6.57893 11.7172 6.58084 11.6921 6.58918 11.6729C6.60123 11.6382 6.6497 11.6134 6.73456 11.5987C6.80658 11.5858 6.91678 11.5793 7.06518 11.5793ZM7.93247 11.8809C7.97905 11.8809 8.02887 11.8986 8.08193 11.934L8.08335 11.9348C8.15558 11.9764 8.3274 12.1387 8.59878 12.4218C8.44108 12.5471 8.32789 12.6331 8.25921 12.6798C8.17401 12.7389 8.09852 12.7835 8.03272 12.8136C7.96029 12.8469 7.89507 12.8636 7.83703 12.8636C7.78831 12.8636 7.74465 12.8519 7.70606 12.8284C7.59033 12.7503 7.5863 12.5886 7.69399 12.343C7.73521 12.2429 7.81308 12.0888 7.92762 11.881C7.92923 11.8809 7.93085 11.8809 7.93247 11.8809ZM7.83805 12.9005C7.8377 12.9005 7.83734 12.9005 7.83698 12.9005C7.83663 12.9005 7.83627 12.9005 7.83591 12.9005H7.83805ZM7.00381 12.7855C7.01525 12.7855 7.0267 12.7878 7.03815 12.7924C7.06045 12.802 7.07648 12.818 7.08623 12.8405C7.09534 12.8628 7.09538 12.8856 7.08637 12.9088C7.0769 12.9312 7.06077 12.9474 7.038 12.9573C7.02661 12.9618 7.01521 12.9641 7.00381 12.9641C6.99246 12.9641 6.98109 12.9619 6.96972 12.9574C6.94696 12.9475 6.93081 12.9313 6.92127 12.9089C6.91222 12.8865 6.91223 12.8637 6.9213 12.8406C6.93085 12.8182 6.94707 12.802 6.96987 12.7922C6.98118 12.7877 6.9925 12.7855 7.00381 12.7855ZM7.51298 13.3276C7.52678 13.3276 7.54057 13.3304 7.55436 13.3358C7.58186 13.3476 7.60148 13.3672 7.6132 13.3945C7.62416 13.4226 7.62417 13.4502 7.61324 13.4775C7.60152 13.5048 7.58194 13.5244 7.55449 13.5363C7.54066 13.5418 7.52681 13.5446 7.51296 13.5446C7.49924 13.5446 7.48551 13.5418 7.47176 13.5364C7.44424 13.5245 7.42458 13.505 7.41282 13.4777C7.40179 13.4497 7.40172 13.422 7.4126 13.3948C7.42438 13.3675 7.44416 13.3476 7.47162 13.3358C7.48541 13.3304 7.4992 13.3276 7.51298 13.3276ZM8.81553 13.3326C8.86336 13.5006 8.88357 13.639 8.87617 13.7477C8.87164 13.8516 8.83486 13.9869 8.76583 14.1537C8.38498 14.0192 8.14418 13.9141 8.04343 13.8384C7.92836 13.7582 7.90835 13.6779 7.98342 13.5972L7.98414 13.5964C8.09042 13.4787 8.36756 13.3907 8.81553 13.3326ZM7.16776 13.9611C7.18047 13.9611 7.19327 13.9636 7.20615 13.9686C7.23126 13.9793 7.24931 13.9973 7.26032 14.0229C7.27041 14.0478 7.27039 14.0733 7.26026 14.0991C7.24925 14.1245 7.23117 14.1425 7.20601 14.1532C7.19354 14.1582 7.18098 14.1608 7.16831 14.1608C7.15564 14.1608 7.14287 14.1582 7.13001 14.1532C7.1049 14.1425 7.08682 14.1245 7.07578 14.099C7.06567 14.074 7.06567 14.0486 7.07578 14.0228C7.0868 13.9974 7.10498 13.9792 7.13015 13.9686C7.14259 13.9636 7.15513 13.9611 7.16776 13.9611ZM7.1688 14.1978C7.16906 14.1978 7.16855 14.1978 7.1688 14.1978ZM7.51612 14.3751L8.2513 14.8872C8.12446 15.0099 8.02036 15.0936 7.939 15.1384C7.85915 15.1863 7.73414 15.2345 7.56396 15.2831C7.48331 15.0903 7.42816 14.904 7.39852 14.7241C7.37941 14.5851 7.39536 14.486 7.44636 14.4269C7.46378 14.4063 7.48737 14.3887 7.51612 14.3751ZM8.98603 0.971008C8.78093 0.971008 8.55766 1.02632 8.31623 1.13696C7.99362 1.31116 7.76228 1.64515 7.6222 2.13892L7.38494 2.28235C7.2357 2.10596 7.12131 2.0127 7.04175 2.00256C7.02838 1.99842 7.01408 1.99634 6.99888 1.99634C6.91921 1.99634 6.81445 2.05257 6.68459 2.16504C6.4829 2.08168 6.31664 2.03998 6.18581 2.03998C6.15415 2.03998 6.12455 2.04241 6.09704 2.04724C6.00322 2.05961 5.89602 2.09332 5.77541 2.14832L4.75869 2.64349C4.16891 2.96946 3.66598 3.34895 3.2499 3.78198C3.24429 3.80005 3.04436 3.89675 2.65011 4.07208C2.56846 4.11588 2.50562 4.1599 2.46158 4.2041C2.31766 4.32363 2.27681 4.54722 2.33906 4.87482C2.14378 5.24842 1.9752 5.61905 1.83362 5.98676C1.72673 6.26796 1.66778 6.518 1.65677 6.73682C1.64855 6.85662 1.65395 7.00088 1.67299 7.16968C1.70993 7.41592 1.76882 7.90169 1.84966 8.62695L1.94472 9.25977C1.95802 9.35832 1.96822 9.45288 1.9753 9.54346C1.99068 9.73958 2.00238 9.99954 2.0104 10.3233C2.0226 10.8387 2.02446 11.0964 2.01595 11.0964C2.01554 11.0964 2.0151 11.0958 2.01462 11.0946C2.00854 11.1508 1.98979 11.1992 1.95836 11.2397C1.73264 11.4843 1.60613 11.6339 1.57885 11.6885C1.52142 11.7765 1.48254 11.8605 1.46219 11.9407C1.44575 12.0004 1.4351 12.0737 1.43026 12.1605C1.42732 12.1722 1.42641 12.2926 1.42751 12.5219C1.426 12.5824 1.42378 12.6267 1.42086 12.6548C1.41417 12.7286 1.40181 12.8031 1.38379 12.8783C1.36576 12.9556 1.33903 13.0467 1.30361 13.1514C1.12614 13.6352 1.01715 13.9455 0.976645 14.0824C0.907558 14.3032 0.862299 14.4787 0.840872 14.6091C0.812819 14.7828 0.818912 14.9222 0.859152 15.0271C0.629185 15.0614 0.496334 15.1506 0.460867 15.2949C0.44396 15.3512 0.439209 15.4262 0.446615 15.5198C0.444129 15.5377 0.46716 15.7014 0.515707 16.0107C0.524027 16.0788 0.527651 16.1368 0.526571 16.1849C0.525331 16.2382 0.517659 16.2901 0.503546 16.3406C0.499359 16.3633 0.473465 16.433 0.425879 16.5495L0.408362 16.6154C0.398502 16.6695 0.406056 16.7204 0.431036 16.7679C0.448143 16.8025 0.479145 16.8418 0.524038 16.886L0.87229 17.1803L1.18171 17.5022C1.23725 17.5543 1.29231 17.5939 1.34688 17.6211C1.42191 17.6584 1.51261 17.6818 1.61898 17.6911C1.96632 17.7086 2.18466 17.7173 2.27399 17.7173C2.30379 17.7173 2.31923 17.7163 2.32032 17.7144C2.64052 17.7031 2.78303 17.5598 2.74785 17.2847C2.73851 17.2411 2.7162 17.1932 2.68094 17.1409C2.51552 16.9448 2.27533 16.6051 1.96036 16.1218L1.95328 16.0281C2.00984 16.0655 2.06227 16.0842 2.11028 16.0842C2.15272 16.0842 2.19184 16.0696 2.22764 16.0404C2.37388 15.9511 2.48742 15.8106 2.56826 15.6189C2.62563 15.4931 2.69588 15.3012 2.77898 15.0432C2.8115 14.9418 2.84345 14.8383 2.87485 14.7327C3.02067 14.218 3.10116 13.9443 3.11634 13.9114L3.37176 13.2208C3.3909 13.1671 3.40863 13.1153 3.42495 13.0654C3.41357 13.1675 3.40612 13.2712 3.40226 13.3766C3.39336 14.3736 3.72796 15.236 4.40603 15.9639C5.10249 16.6734 5.94718 17.0469 6.9401 17.0842C6.96188 17.0845 6.9836 17.0847 7.00525 17.0847C7.96741 17.0847 8.81141 16.7493 9.53725 16.0784C10.2457 15.3832 10.6185 14.5373 10.6554 13.5408C10.6648 12.5439 10.3307 11.6814 9.6531 10.9531C9.55591 10.854 9.45583 10.7614 9.35285 10.6754C9.35448 10.6716 9.35494 10.6667 9.3547 10.6606C9.32528 10.4969 9.2992 10.3775 9.27645 10.3024C9.23822 10.1705 9.18955 10.0623 9.13042 9.97772C8.94002 9.72899 8.72864 9.58778 8.49628 9.55414C8.4753 9.53322 8.45045 9.49489 8.42176 9.43915C8.39499 9.38805 8.35592 9.30349 8.30453 9.18542C8.23792 8.79205 8.19477 8.4951 8.1751 8.29468C8.16104 8.18881 8.14786 7.93976 8.13556 7.54742C8.13204 7.48486 8.12662 7.42475 8.11931 7.36719C8.11831 7.31699 8.07762 7.13335 7.99723 6.81628C7.98514 6.75582 7.97751 6.69572 7.97434 6.63599C7.97041 6.56192 7.97128 6.48132 7.97693 6.39417L8.03225 5.69128C8.04601 5.51955 8.06505 5.38286 8.08936 5.28119L8.2313 4.96442L8.37903 4.68298C8.39694 4.64758 8.41179 4.61349 8.42359 4.58069C8.46152 4.49165 8.48232 4.31591 8.486 4.05347C8.51753 4.01942 8.54275 3.99745 8.56164 3.98755C8.5659 3.98307 8.59484 3.9746 8.64849 3.96216C8.66172 3.95752 8.67243 3.95238 8.68061 3.94672C8.69876 3.93512 8.71865 3.91506 8.7403 3.8866C8.80421 3.9246 8.85846 3.9436 8.90305 3.9436C8.93013 3.9436 8.95365 3.93661 8.97359 3.92261C9.00083 3.90334 9.02228 3.87509 9.03794 3.83789C9.03787 3.83789 9.03799 3.83796 9.03794 3.83789C9.04229 3.83789 9.07346 3.74279 9.13111 3.55237C9.14866 3.50712 9.16629 3.47612 9.184 3.45935C9.20012 3.44252 9.22298 3.43043 9.25258 3.4231C9.38641 3.41136 9.45552 3.40178 9.45992 3.39435C9.49882 3.38055 9.53425 3.35665 9.56621 3.32263C9.6133 3.29358 9.72262 3.08677 9.89416 2.70227C10.0367 2.51076 10.075 2.23241 10.0095 1.86719C9.94896 1.55192 9.7967 1.30982 9.55266 1.14087L9.54413 1.13513C9.37606 1.02571 9.19002 0.971008 8.98603 0.971008Z" fill="black"/>
</svg>
