<svg viewBox="0 0 744.094 1052.362" xmlns="http://www.w3.org/2000/svg"><path d="M586.61 696.88c-1.078-2.39-25.131-62.635-53.451-133.88l-51.49-129.53-11.383-6.69c-20.544-12.072-44.743-17.664-62.353-14.41-26.515 4.902-49.115 24.189-88.689 75.689-28.905 37.616-44.665 53.15-63.21 62.31-14.154 6.991-14.613 7.081-35.705 7.018-23.569-.071-32.539-2.545-51.672-14.251l-9.87-6.04-54.387-136.93c-29.912-75.314-54.389-138.05-54.394-139.42-.005-1.708 3.042-.778 9.707 2.961 23.194 13.012 47.054 18.641 64.087 15.12 26.441-5.466 47.231-23.074 85.645-72.538 25.79-33.207 41.717-50.501 54.628-59.312 26.714-18.231 59.23-19.256 91.661-2.888 12.201 6.158 12.543 6.232 12.543 2.715 0-2.18 7.752-5.419 13.506-5.641 1.29-.05 221.5 551.07 221.5 554.35 0 .691-2.004 1.76-4.454 2.375s-5.761 1.62-7.359 2.233c-1.913.734-3.573-.368-4.865-3.23zM246.08 551.17c5.074-1.928 14.641-7.37 21.259-12.092l12.033-8.587-3.097-7.8c-1.704-4.29-6.512-16.319-10.685-26.73l-7.588-18.932-11.017 8.293c-10.915 8.215-27.216 15.69-34.218 15.69-1.997 0-3.631.964-3.631 2.142s4.305 13.252 9.568 26.832c10.789 27.84 10.482 27.603 27.375 21.184zm-38.794-49.25c0-.518-4.58-12.355-10.178-26.303s-10.178-25.956-10.178-26.683 4.788-2.704 10.64-4.393c11.269-3.252 19.329-7.51 30.336-16.03 3.709-2.87 7.157-5.218 7.664-5.218s5.3 11.033 10.652 24.519 10.513 25.35 11.469 26.369c1.957 2.083 11.774-8.217 29.542-30.995 6.153-7.888 11.363-14.341 11.579-14.341s4.827 11.242 10.248 24.98 10.504 24.982 11.297 24.982 5.41-5.205 10.261-11.565 13.678-16.67 19.616-22.906l10.795-11.341-9.043-22.893c-4.974-12.591-9.618-24.495-10.32-26.452-1.145-3.191-2.152-2.712-9.72 4.626-4.643 4.502-13.843 15.056-20.444 23.452s-12.285 15.266-12.63 15.266-5.37-12.118-11.16-26.93-10.749-26.676-11.015-26.368-7.135 8.887-15.266 19.065-17.246 20.809-20.258 23.625l-5.475 5.12-9.8-25.475c-5.39-14.012-10.473-26.206-11.296-27.098-.826-.896-5.113 1.34-9.571 4.994-8.968 7.349-25.07 15.412-34.293 17.172-3.308.632-6.014 1.71-6.014 2.396s4.58 12.66 10.178 26.608 10.178 25.785 10.178 26.303c0 1.984-18.197.82-28.292-1.81-5.811-1.513-16.395-5.687-23.52-9.275s-12.954-6.266-12.954-5.951 4.8 12.608 10.669 27.318l10.669 26.745 13.85 6.92c7.617 3.806 18.43 8.123 24.027 9.593 9.9 2.6 27.757 3.87 27.757 1.974zm258.98-101.99c-5.224-13.102-10.412-24.928-11.528-26.28-3.115-3.77-17.531-10.572-31.603-14.911-14.329-4.419-33.636-5.38-32.118-1.599a36117.6 36117.6 0 0110.695 26.832l9.766 24.52h11.514c12.428 0 29.92 4.801 43.362 11.903 4.58 2.42 8.571 4.166 8.87 3.88s-3.733-11.242-8.957-24.344zm-304.23-8.564c.49-1.277-3.62-13.56-9.133-27.294s-9.638-25.598-9.167-26.361 2.026-1.388 3.454-1.388c6.075 0 23.816-8.235 34.184-15.868 11.048-8.133 11.206-8.183 12.798-4.048 6.83 17.74 19.414 48.77 20.085 49.523 1.054 1.183 14.231-13.537 28.553-31.898 6.143-7.875 11.771-13.946 12.507-13.491s5.74 12.137 11.121 25.96 10.387 24.892 11.125 24.595 8.038-8.867 16.221-19.044 17.026-20.5 19.65-22.938l4.771-4.433 1.723 4.433 10.313 26.563c4.725 12.172 8.89 22.429 9.255 22.795s4.701-2.433 9.636-6.22c9.455-7.254 26.316-15.555 31.692-15.603 8.91-.08 8.742-2.303-2.271-29.853-5.84-14.607-10.786-26.735-10.993-26.952s-4.502.697-9.543 2.03c-11.354 3.005-21.776 8.275-31.164 15.76-3.957 3.154-7.704 5.728-8.328 5.72s-5.631-11.458-11.13-25.444-10.304-25.793-10.679-26.239c-1.238-1.47-17.405 15.367-28.762 29.955-6.14 7.888-11.758 14.341-12.482 14.341s-5.77-11.288-11.214-25.084-10.393-25.39-11-25.766-7.06 6.958-14.34 16.294c-13.212 16.944-25.796 30.39-27.029 28.878-.358-.439-5.086-12.04-10.506-25.78s-10.07-25.265-10.337-25.61-4.918 2.673-10.339 6.71c-12.704 9.46-16.862 11.584-29.566 15.103l-10.457 2.896 9.995 24.902c5.497 13.696 9.995 26.07 9.995 27.498 0 2.098-2.348 2.344-12.23 1.286-13.691-1.466-26.64-5.503-41.013-12.787-5.32-2.696-9.674-4.193-9.674-3.328 0 5.259 19.305 49.997 22.994 53.288 12.155 10.845 58.684 23.674 61.284 16.898zm260.41-101.5l-10.678-26.64-11.468-6.065c-18.895-9.993-52.373-17.015-52.373-10.985 0 1.309 4.497 13.591 9.994 27.294l9.993 24.915 12.1 1.224c15.034 1.521 28.71 5.605 41.931 12.521 5.598 2.928 10.403 5.111 10.678 4.85s-4.304-12.462-10.178-27.114zm-102.46-36.672c3.663-1.84 9.991-4.355 14.062-5.588s8.39-2.548 9.597-2.922c1.456-.452-1.246-9.287-8.02-26.23-5.619-14.05-10.952-26.311-11.851-27.245-3.795-3.942-26.657 5.842-43.948 18.808l-5.542 4.155-10.148-25.364c-5.582-13.95-11.034-25.659-12.116-26.019-1.844-.614-31.373 33.587-37.216 43.104-2.456 4-1.886 6.317 7.281 29.551 5.47 13.866 10.426 25.506 11.011 25.868s7.27-7.186 14.854-16.774c13.972-17.664 25.361-29.83 26.56-28.374.543.66 14.062 34.188 19.915 49.391 1.608 4.177 1.618 4.175 10.255-2.418 4.755-3.629 11.642-8.104 15.305-9.944zm68.651-47.302c0-.493-4.203-11.526-9.34-24.52-10.586-26.78-12.66-29.162-32.647-37.51-12.541-5.239-40.086-11.06-42.223-8.922-.539.539 3.794 13.177 9.629 28.086l10.608 27.106 11.168.025c11.665.026 36.964 7.55 45.509 13.536 4.362 3.055 7.294 3.94 7.294 2.199z"/></svg>